HIERARCHY
ROOT reference
{
  OFFSET -65.3212 -1.93545 -120.338
  CHANNELS 6 Xposition Yposition Zposition Zrotation Xrotation Yrotation
  JOINT Hips
  {
    OFFSET 0 78.7191 0
    CHANNELS 3 Zrotation Xrotation Yrotation
    JOINT Chest
    {
      OFFSET 0 8.7983 -4.7612
      CHANNELS 3 Zrotation Xrotation Yrotation
      JOINT Chest2
      {
        OFFSET 0 8.0291 0.4195
        CHANNELS 3 Zrotation Xrotation Yrotation
        JOINT Chest3
        {
          OFFSET 0 9.9351 -2.2114
          CHANNELS 3 Zrotation Xrotation Yrotation
          JOINT Neck
          {
            OFFSET 0 22.3885 -0.4656
            CHANNELS 3 Zrotation Xrotation Yrotation
            JOINT Head
            {
              OFFSET -0.0001 12.643 3.4389
              CHANNELS 3 Zrotation Xrotation Yrotation
              End Site
              {
                OFFSET 0.0001 17.6655 0.5274
              }
            }
          }
          JOINT LeftCollar
          {
            OFFSET 2.2603 21.606 7.4023
            CHANNELS 3 Zrotation Xrotation Yrotation
            JOINT LeftShoulder
            {
              OFFSET 13.5163 -1.1332 -5.0146
              CHANNELS 3 Zrotation Xrotation Yrotation
              JOINT LeftElbow
              {
                OFFSET -0.0995 -28.05 -0.2431
                CHANNELS 3 Zrotation Xrotation Yrotation
                JOINT LeftWrist
                {
                  OFFSET 0.0679 -23.3996 -0.1402
                  CHANNELS 3 Zrotation Xrotation Yrotation
                  JOINT LeftFinger1
                  {
                    OFFSET 0.7932 -9.069 2.5189
                    CHANNELS 3 Zrotation Xrotation Yrotation
                    JOINT LeftFinger11
                    {
                      OFFSET -0.8272 -3.3923 0.5977
                      CHANNELS 3 Zrotation Xrotation Yrotation
                      JOINT LeftFinger12
                      {
                        OFFSET -0.5649 -2.3158 0.4082
                        CHANNELS 3 Zrotation Xrotation Yrotation
                        End Site
                        {
                          OFFSET -0.4919 -1.6479 0.2673
                        }
                      }
                    }
                  }
                  JOINT LeftFinger2
                  {
                    OFFSET 0.9159 -9.2044 0.2193
                    CHANNELS 3 Zrotation Xrotation Yrotation
                    JOINT LeftFinger21
                    {
                      OFFSET 0.0117 -4.1944 -0.0248
                      CHANNELS 3 Zrotation Xrotation Yrotation
                      JOINT LeftFinger22
                      {
                        OFFSET 0.0071 -2.3249 -0.0142
                        CHANNELS 3 Zrotation Xrotation Yrotation
                        End Site
                        {
                          OFFSET -0.1475 -2.0882 0.0028
                        }
                      }
                    }
                  }
                  JOINT LeftFinger3
                  {
                    OFFSET 0.6113 -8.7231 -2.0637
                    CHANNELS 3 Zrotation Xrotation Yrotation
                    JOINT LeftFinger31
                    {
                      OFFSET -0.1927 -3.8059 -0.2383
                      CHANNELS 3 Zrotation Xrotation Yrotation
                      JOINT LeftFinger32
                      {
                        OFFSET -0.1091 -2.1688 -0.1362
                        CHANNELS 3 Zrotation Xrotation Yrotation
                        End Site
                        {
                          OFFSET -0.2358 -1.9176 -0.0906
                        }
                      }
                    }
                  }
                  JOINT LeftFinger4
                  {
                    OFFSET -0.6151 -8.0947 -3.5641
                    CHANNELS 3 Zrotation Xrotation Yrotation
                    JOINT LeftFinger41
                    {
                      OFFSET -0.4882 -2.341 -0.6462
                      CHANNELS 3 Zrotation Xrotation Yrotation
                      JOINT LeftFinger42
                      {
                        OFFSET -0.3575 -1.7167 -0.4742
                        CHANNELS 3 Zrotation Xrotation Yrotation
                        End Site
                        {
                          OFFSET -0.4187 -1.5237 -0.3496
                        }
                      }
                    }
                  }
                  JOINT LeftFinger0
                  {
                    OFFSET -1.42 -1.8761 1.4223
                    CHANNELS 3 Zrotation Xrotation Yrotation
                    JOINT LeftFinger01
                    {
                      OFFSET -1.1471 -3.4929 2.6334
                      CHANNELS 3 Zrotation Xrotation Yrotation
                      JOINT LeftFinger02
                      {
                        OFFSET -0.823 -2.3 1.6571
                        CHANNELS 3 Zrotation Xrotation Yrotation
                        End Site
                        {
                          OFFSET -0.5822 -1.6914 1.1582
                        }
                      }
                    }
                  }
                }
              }
            }
          }
          JOINT RightCollar
          {
            OFFSET -2.2603 21.606 7.4023
            CHANNELS 3 Zrotation Xrotation Yrotation
            JOINT RightShoulder
            {
              OFFSET -13.5187 -1.1334 -5.0155
              CHANNELS 3 Zrotation Xrotation Yrotation
              JOINT RightElbow
              {
                OFFSET 0.0994 -28.0499 -0.2431
                CHANNELS 3 Zrotation Xrotation Yrotation
                JOINT RightWrist
                {
                  OFFSET -0.0679 -23.3996 -0.1402
                  CHANNELS 3 Zrotation Xrotation Yrotation
                  JOINT RightFinger1
                  {
                    OFFSET -0.7932 -9.0691 2.5189
                    CHANNELS 3 Zrotation Xrotation Yrotation
                    JOINT RightFinger11
                    {
                      OFFSET 0.8272 -3.3923 0.5977
                      CHANNELS 3 Zrotation Xrotation Yrotation
                      JOINT RightFinger12
                      {
                        OFFSET 0.565 -2.3158 0.4082
                        CHANNELS 3 Zrotation Xrotation Yrotation
                        End Site
                        {
                          OFFSET 0.4919 -1.6479 0.2673
                        }
                      }
                    }
                  }
                  JOINT RightFinger2
                  {
                    OFFSET -0.916 -9.2044 0.2193
                    CHANNELS 3 Zrotation Xrotation Yrotation
                    JOINT RightFinger21
                    {
                      OFFSET -0.0117 -4.1944 -0.0248
                      CHANNELS 3 Zrotation Xrotation Yrotation
                      JOINT RightFinger22
                      {
                        OFFSET -0.0071 -2.3249 -0.0142
                        CHANNELS 3 Zrotation Xrotation Yrotation
                        End Site
                        {
                          OFFSET 0.1475 -2.0882 0.0028
                        }
                      }
                    }
                  }
                  JOINT RightFinger3
                  {
                    OFFSET -0.6113 -8.7231 -2.0637
                    CHANNELS 3 Zrotation Xrotation Yrotation
                    JOINT RightFinger31
                    {
                      OFFSET 0.1927 -3.8059 -0.2383
                      CHANNELS 3 Zrotation Xrotation Yrotation
                      JOINT RightFinger32
                      {
                        OFFSET 0.1091 -2.1688 -0.1362
                        CHANNELS 3 Zrotation Xrotation Yrotation
                        End Site
                        {
                          OFFSET 0.2358 -1.9176 -0.0906
                        }
                      }
                    }
                  }
                  JOINT RightFinger4
                  {
                    OFFSET 0.6151 -8.0947 -3.564
                    CHANNELS 3 Zrotation Xrotation Yrotation
                    JOINT RightFinger41
                    {
                      OFFSET 0.4882 -2.341 -0.6462
                      CHANNELS 3 Zrotation Xrotation Yrotation
                      JOINT RightFinger42
                      {
                        OFFSET 0.3574 -1.7166 -0.4742
                        CHANNELS 3 Zrotation Xrotation Yrotation
                        End Site
                        {
                          OFFSET 0.4187 -1.5237 -0.3496
                        }
                      }
                    }
                  }
                  JOINT RightFinger0
                  {
                    OFFSET 1.4199 -1.8761 1.4221
                    CHANNELS 3 Zrotation Xrotation Yrotation
                    JOINT RightFinger01
                    {
                      OFFSET 1.1472 -3.4929 2.6336
                      CHANNELS 3 Zrotation Xrotation Yrotation
                      JOINT RightFinger02
                      {
                        OFFSET 0.8229 -2.3 1.6571
                        CHANNELS 3 Zrotation Xrotation Yrotation
                        End Site
                        {
                          OFFSET 0.5822 -1.6914 1.1582
                        }
                      }
                    }
                  }
                }
              }
            }
          }
        }
      }
    }
    JOINT RightHip
    {
      OFFSET -9.412 3.9771 -0.7758
      CHANNELS 3 Zrotation Xrotation Yrotation
      JOINT RightKnee
      {
        OFFSET -0.7531 -40.938 0
        CHANNELS 3 Zrotation Xrotation Yrotation
        JOINT RightAnkle
        {
          OFFSET 0 -40.1986 0
          CHANNELS 3 Zrotation Xrotation Yrotation
          JOINT RightToe
          {
            OFFSET 0 -4.4182 9.239
            CHANNELS 3 Zrotation Xrotation Yrotation
            End Site
            {
              OFFSET 0 0 6.1981
            }
          }
        }
      }
    }
    JOINT LeftHip
    {
      OFFSET 9.4119 3.9773 -0.7758
      CHANNELS 3 Zrotation Xrotation Yrotation
      JOINT LeftKnee
      {
        OFFSET 0.7532 -40.9383 0
        CHANNELS 3 Zrotation Xrotation Yrotation
        JOINT LeftAnkle
        {
          OFFSET 0 -40.1986 0
          CHANNELS 3 Zrotation Xrotation Yrotation
          JOINT LeftToe
          {
            OFFSET 0 -4.4182 9.239
            CHANNELS 3 Zrotation Xrotation Yrotation
            End Site
            {
              OFFSET 0 0 6.1981
            }
          }
        }
      }
    }
  }
}
MOTION
Frames:	4
Frame Time:	0.0333333
294.626 -2.70028 73.0322 0 0 -0 9.01042 -3.92245 16.6537 -2.49948 2.15308 2.46888 -5.09466 4.19435 5.03447 -5.09467 4.19435 5.03448 -0.157021 -6.82522 -10.9915 -5.63803 -2.46094 -16.7204 5.99321 0.417041 -7.57318 24.215 48.1173 -3.74616 -148.949 -78.0911 -107.01 -17.4476 -7.43534 -37.7361 9.91755 -6.82827 -2.84761 -0.508447 -5.44031 -2.66907 7.17855 -4.4111 0.660994 12.3191 -5.34021 -4.08557 -0.568513 -3.25644 0.537515 15.2127 -9.05804 2.69663 14.8389 -5.35261 -0.892927 -0.582063 -3.72663 1.13534 15.0973 -9.78205 3.27154 13.1761 0.401328 0.544406 -0.114591 -6.46549 4.621 14.9455 -9.44484 3.68218 -1.18131 -6.47509 5.57971 -4.66206 0.305731 0.30607 -6.46882 -8.78182 1.31736 -2.51716 0.0161027 10.9398 -1.19229 1.23036 -22.1248 9.3135 -35.4703 -23.5231 -5.34875 -0.0260548 8.34102 5.32512 1.81574 -0.164405 5.32344 1.81289 -0.169897 5.32221 1.81276 -0.169864 5.32008 1.81977 0.0390913 5.32325 1.8139 0.0429342 5.32364 1.81428 0.0423655 5.23831 2.02469 0.197169 5.23862 2.02949 0.203216 5.23887 2.02985 0.202912 5.24776 1.97158 0.351967 5.24865 1.97731 0.354907 5.24848 1.97525 0.356834 -1.16979 2.6422 0.8582 -1.16983 2.64217 0.857804 -1.16948 2.6416 0.85759 -20.2137 -7.82227 -5.01732 2.96518 27.2439 -1.57832 12.208 -12.3585 -2.82246 -0.0498422 -0.31445 0.0130868 -13.57 0.443049 -11.6345 -0.11888 17.1654 0.11961 4.84564 -10.1725 -0.527345 -0.992584 -0.910108 -0.00559696 
294.559 -2.70452 73.0695 0 0 -0 8.99313 -4.0603 16.643 -2.47795 2.21334 2.42461 -5.05285 4.31767 4.94806 -5.05285 4.31767 4.94808 -0.00633397 -7.03609 -10.9604 -5.50074 -2.5572 -16.7639 5.45347 0.337586 -8.74721 25.2445 47.0816 -5.59592 -138.442 -79.2223 -96.486 -17.9229 -10.4695 -38.6279 9.44466 -5.6299 -3.1175 -0.510667 -5.45906 -2.68128 7.24028 -4.44836 0.669041 12.1112 -4.81568 -4.67559 -0.569001 -3.26184 0.537973 14.368 -8.58708 2.48707 14.3671 -5.26069 -1.38224 -0.582831 -3.73258 1.13663 14.2699 -9.28518 3.03028 12.8355 -0.282182 0.0662818 -0.112845 -6.2066 4.47985 14.1157 -8.96242 3.41883 1.76494 -6.51416 8.11968 -4.43428 0.250045 0.318022 -5.69897 -7.7233 1.21125 -2.47308 0.0113578 11.1886 -1.37977 0.947961 -21.9079 9.43615 -35.8838 -23.4086 -5.30909 -0.0784281 8.60505 5.32513 1.81575 -0.164381 5.32345 1.8129 -0.169839 5.32224 1.81274 -0.169791 5.32009 1.81979 0.0391101 5.32333 1.81397 0.0427927 5.32366 1.81423 0.0424611 5.23834 2.02471 0.197176 5.23861 2.02947 0.203287 5.23893 2.0298 0.202975 5.24779 1.97161 0.351986 5.24866 1.97727 0.35496 5.24851 1.97525 0.356838 -1.16971 2.64225 0.857879 -1.16987 2.64219 0.857815 -1.16949 2.64159 0.85762 -20.0917 -7.74327 -4.90768 2.9852 27.3255 -1.59576 12.1487 -12.4259 -2.90018 -0.0387164 -0.236563 0.00867401 -13.4885 0.487311 -11.6148 -0.120679 17.3441 0.115291 4.80605 -10.2795 -0.506327 -0.992631 -0.910133 -0.00550491 
294.488 -2.70599 73.1181 0 0 -0 8.96062 -4.25133 16.5679 -2.44745 2.29095 2.39299 -4.99428 4.47548 4.88737 -4.99429 4.47549 4.88739 0.125808 -7.308 -11.1212 -5.25585 -2.61919 -16.6571 4.70101 0.283069 -9.85006 26.734 46.7746 -7.7471 -131.514 -79.4462 -89.7982 -18.257 -13.3525 -38.6971 8.91273 -4.26112 -3.41159 -0.512906 -5.47348 -2.691 7.28839 -4.4774 0.675375 11.8536 -4.24067 -5.30247 -0.56981 -3.26612 0.538327 13.4106 -8.0478 2.25761 13.8232 -5.15704 -1.92869 -0.583169 -3.7374 1.1377 13.332 -8.71552 2.76491 12.4339 -1.05388 -0.486724 -0.110967 -5.91289 4.31606 13.1732 -8.40768 3.12755 5.01936 -6.3489 10.7246 -4.17415 0.185952 0.328775 -4.82005 -6.51703 1.07293 -2.36225 0.0134359 11.4136 -1.65424 0.736905 -21.5131 9.28602 -36.3948 -23.7935 -5.1045 -0.0958439 9.00073 5.32514 1.81575 -0.164358 5.32344 1.81288 -0.169739 5.32221 1.81278 -0.169939 5.32007 1.81979 0.0391411 5.32331 1.81395 0.0428145 5.32359 1.81432 0.0423079 5.2383 2.02471 0.197207 5.23862 2.02943 0.203361 5.23888 2.0299 0.202833 5.24777 1.97161 0.35207 5.24867 1.97723 0.355062 5.24848 1.97524 0.356854 -1.1697 2.64228 0.857985 -1.16986 2.64216 0.857853 -1.16951 2.64158 0.857645 -19.9735 -7.63726 -4.99061 3.00277 27.398 -1.61819 12.0632 -12.4223 -2.76686 -0.0371217 -0.226551 0.00813798 -13.3753 0.576875 -11.5095 -0.122516 17.5253 0.110498 4.76888 -10.4047 -0.433086 -0.992586 -0.91012 -0.0057139 
294.417 -2.72575 73.1806 0 0 -0 8.92696 -4.36208 16.3189 -2.43542 2.32813 2.34424 -4.97009 4.55246 4.79114 -4.9701 4.55247 4.79115 0.297981 -7.51389 -11.0395 -4.8671 -2.63522 -16.6597 4.1849 0.229865 -10.377 26.8404 45.2356 -7.74491 -117.645 -78.4081 -75.7369 -17.9517 -15.7016 -38.7973 8.35546 -2.80423 -3.71752 -0.514451 -5.48435 -2.69827 7.32466 -4.49932 0.680096 11.5674 -3.64533 -5.93802 -0.570259 -3.2693 0.53862 12.3953 -7.46976 2.02373 13.2411 -5.04726 -2.50044 -0.583667 -3.74092 1.13849 12.3383 -8.10456 2.49328 11.9971 -1.86935 -1.08213 -0.109945 -5.60224 4.13853 12.1754 -7.81257 2.82833 8.41682 -6.00535 13.2474 -3.89776 0.116799 0.336876 -3.88436 -5.23681 0.905772 -2.31633 0.0179754 11.4005 -1.79131 0.196176 -21.4353 9.71759 -36.7459 -23.1301 -5.20157 0.0397492 9.705 5.3251 1.81578 -0.164282 5.32343 1.81287 -0.169937 5.32223 1.81277 -0.169927 5.32007 1.81981 0.0392383 5.3233 1.81395 0.0428469 5.32362 1.81429 0.0423343 5.23829 2.02471 0.197274 5.23861 2.02945 0.203206 5.23887 2.02992 0.20284 5.24779 1.97159 0.351924 5.24868 1.97731 0.354881 5.24847 1.9752 0.356881 -1.16977 2.6422 0.85822 -1.1699 2.6421 0.857922 -1.16948 2.64157 0.857673 -19.9042 -7.72815 -4.97819 3.04361 27.5816 -1.64177 11.9872 -12.4509 -2.59802 -0.060714 -0.390708 0.0173851 -13.2808 0.531252 -11.2163 -0.124835 17.7921 0.106849 4.72881 -10.5993 -0.500964 -0.992627 -0.910121 -0.00566499 
